<?xml version="1.0" encoding="UTF-8" standalone="no"?><!DOCTYPE svg PUBLIC "-//W3C//DTD SVG 1.1//EN" "http://www.w3.org/Graphics/SVG/1.1/DTD/svg11.dtd"><svg width="100%" height="100%" viewBox="0 0 1890 1890" version="1.1" xmlns="http://www.w3.org/2000/svg" xmlns:xlink="http://www.w3.org/1999/xlink" xml:space="preserve" xmlns:serif="http://www.serif.com/" style="fill-rule:evenodd;clip-rule:evenodd;stroke-linejoin:round;stroke-miterlimit:1.41421;"><path d="M581.076,1147.67c26.614,23.467 54.306,42.125 88.622,48.885c45.343,8.942 88.165,4.679 123.21,-27.672c22.33,-20.61 31.946,-46.932 33.404,-75.781c1.048,-20.811 0.319,-41.723 0.319,-62.591c0.015,-184.057 0.015,-368.128 0.015,-552.185l0,-12.644l551.264,0l0,137.712l-383.773,0l0,155.625l226.217,0l0,138.473l-226.916,0c0,5.267 0,9.271 0,13.29c-0.015,58.156 0.228,116.313 -0.137,174.484c-0.228,35.005 -4.511,69.523 -16.664,102.893c-23.059,63.366 -67.066,108.72 -133.722,131.225c-92.753,31.303 -185.415,29.781 -275.055,-11.267c-21.433,-9.817 -40.194,-24.887 -60.625,-37.833c25.475,-42.311 49.369,-81.967 73.841,-122.614" style="fill:#fff;fill-rule:nonzero;"/></svg>